<?xml version="1.0" encoding="UTF-8" standalone="no"?>
<svg width="600px" height="1100px" version="1.1" xmlns="http://www.w3.org/2000/svg">
<g fill="#000000">
<ellipse cx="20" cy="20" rx="8" ry="8"></ellipse>
<ellipse cx="60" cy="20" rx="16" ry="16"></ellipse>
<ellipse cx="100" cy="20" rx="4" ry="4"></ellipse>
<ellipse cx="140" cy="20" rx="8" ry="8"></ellipse>
<ellipse cx="180" cy="20" rx="16" ry="16"></ellipse>
<ellipse cx="220" cy="20" rx="8" ry="8"></ellipse>
<ellipse cx="260" cy="20" rx="8" ry="8"></ellipse>
<ellipse cx="300" cy="20" rx="4" ry="4"></ellipse>
<ellipse cx="340" cy="20" rx="8" ry="8"></ellipse>
<ellipse cx="380" cy="20" rx="16" ry="16"></ellipse>
<ellipse cx="420" cy="20" rx="16" ry="16"></ellipse>
<ellipse cx="460" cy="20" rx="8" ry="8"></ellipse>
<ellipse cx="500" cy="20" rx="4" ry="4"></ellipse>
<ellipse cx="540" cy="20" rx="8" ry="8"></ellipse>
<ellipse cx="20" cy="60" rx="8" ry="8"></ellipse>
<ellipse cx="60" cy="60" rx="8" ry="8"></ellipse>
<ellipse cx="100" cy="60" rx="8" ry="8"></ellipse>
<ellipse cx="140" cy="60" rx="4" ry="4"></ellipse>
<ellipse cx="180" cy="60" rx="8" ry="8"></ellipse>
<ellipse cx="220" cy="60" rx="16" ry="16"></ellipse>
<ellipse cx="260" cy="60" rx="4" ry="4"></ellipse>
<ellipse cx="300" cy="60" rx="16" ry="16"></ellipse>
<ellipse cx="340" cy="60" rx="8" ry="8"></ellipse>
<ellipse cx="380" cy="60" rx="4" ry="4"></ellipse>
<ellipse cx="420" cy="60" rx="16" ry="16"></ellipse>
<ellipse cx="460" cy="60" rx="16" ry="16"></ellipse>
<ellipse cx="500" cy="60" rx="16" ry="16"></ellipse>
<ellipse cx="540" cy="60" rx="4" ry="4"></ellipse>
<ellipse cx="20" cy="100" rx="8" ry="8"></ellipse>
<ellipse cx="60" cy="100" rx="8" ry="8"></ellipse>
<ellipse cx="100" cy="100" rx="8" ry="8"></ellipse>
<ellipse cx="140" cy="100" rx="16" ry="16"></ellipse>
<ellipse cx="180" cy="100" rx="4" ry="4"></ellipse>
<ellipse cx="220" cy="100" rx="8" ry="8"></ellipse>
<ellipse cx="260" cy="100" rx="4" ry="4"></ellipse>
<ellipse cx="300" cy="100" rx="16" ry="16"></ellipse>
<ellipse cx="340" cy="100" rx="16" ry="16"></ellipse>
<ellipse cx="380" cy="100" rx="4" ry="4"></ellipse>
<ellipse cx="420" cy="100" rx="16" ry="16"></ellipse>
<ellipse cx="460" cy="100" rx="8" ry="8"></ellipse>
<ellipse cx="500" cy="100" rx="8" ry="8"></ellipse>
<ellipse cx="540" cy="100" rx="8" ry="8"></ellipse>
<ellipse cx="20" cy="140" rx="4" ry="4"></ellipse>
<ellipse cx="60" cy="140" rx="8" ry="8"></ellipse>
<ellipse cx="100" cy="140" rx="4" ry="4"></ellipse>
<ellipse cx="140" cy="140" rx="8" ry="8"></ellipse>
<ellipse cx="180" cy="140" rx="16" ry="16"></ellipse>
<ellipse cx="220" cy="140" rx="8" ry="8"></ellipse>
<ellipse cx="260" cy="140" rx="4" ry="4"></ellipse>
<ellipse cx="300" cy="140" rx="16" ry="16"></ellipse>
<ellipse cx="340" cy="140" rx="8" ry="8"></ellipse>
<ellipse cx="380" cy="140" rx="8" ry="8"></ellipse>
<ellipse cx="420" cy="140" rx="4" ry="4"></ellipse>
<ellipse cx="460" cy="140" rx="8" ry="8"></ellipse>
<ellipse cx="500" cy="140" rx="4" ry="4"></ellipse>
<ellipse cx="540" cy="140" rx="8" ry="8"></ellipse>
<ellipse cx="20" cy="180" rx="16" ry="16"></ellipse>
<ellipse cx="60" cy="180" rx="8" ry="8"></ellipse>
<ellipse cx="100" cy="180" rx="8" ry="8"></ellipse>
<ellipse cx="140" cy="180" rx="4" ry="4"></ellipse>
<ellipse cx="180" cy="180" rx="16" ry="16"></ellipse>
<ellipse cx="220" cy="180" rx="4" ry="4"></ellipse>
<ellipse cx="260" cy="180" rx="8" ry="8"></ellipse>
<ellipse cx="300" cy="180" rx="16" ry="16"></ellipse>
<ellipse cx="340" cy="180" rx="4" ry="4"></ellipse>
<ellipse cx="380" cy="180" rx="8" ry="8"></ellipse>
<ellipse cx="420" cy="180" rx="16" ry="16"></ellipse>
<ellipse cx="460" cy="180" rx="8" ry="8"></ellipse>
<ellipse cx="500" cy="180" rx="4" ry="4"></ellipse>
<ellipse cx="540" cy="180" rx="16" ry="16"></ellipse>
<ellipse cx="20" cy="220" rx="16" ry="16"></ellipse>
<ellipse cx="60" cy="220" rx="16" ry="16"></ellipse>
<ellipse cx="100" cy="220" rx="4" ry="4"></ellipse>
<ellipse cx="140" cy="220" rx="16" ry="16"></ellipse>
<ellipse cx="180" cy="220" rx="16" ry="16"></ellipse>
<ellipse cx="220" cy="220" rx="4" ry="4"></ellipse>
<ellipse cx="260" cy="220" rx="8" ry="8"></ellipse>
<ellipse cx="300" cy="220" rx="4" ry="4"></ellipse>
<ellipse cx="340" cy="220" rx="16" ry="16"></ellipse>
<ellipse cx="380" cy="220" rx="16" ry="16"></ellipse>
<ellipse cx="420" cy="220" rx="16" ry="16"></ellipse>
<ellipse cx="460" cy="220" rx="4" ry="4"></ellipse>
<ellipse cx="500" cy="220" rx="16" ry="16"></ellipse>
<ellipse cx="540" cy="220" rx="16" ry="16"></ellipse>
<ellipse cx="20" cy="260" rx="16" ry="16"></ellipse>
<ellipse cx="60" cy="260" rx="4" ry="4"></ellipse>
<ellipse cx="100" cy="260" rx="8" ry="8"></ellipse>
<ellipse cx="140" cy="260" rx="8" ry="8"></ellipse>
<ellipse cx="180" cy="260" rx="8" ry="8"></ellipse>
<ellipse cx="220" cy="260" rx="4" ry="4"></ellipse>
<ellipse cx="260" cy="260" rx="16" ry="16"></ellipse>
<ellipse cx="300" cy="260" rx="8" ry="8"></ellipse>
<ellipse cx="340" cy="260" rx="16" ry="16"></ellipse>
<ellipse cx="380" cy="260" rx="8" ry="8"></ellipse>
<ellipse cx="420" cy="260" rx="4" ry="4"></ellipse>
<ellipse cx="460" cy="260" rx="8" ry="8"></ellipse>
<ellipse cx="500" cy="260" rx="16" ry="16"></ellipse>
<ellipse cx="540" cy="260" rx="4" ry="4"></ellipse>
<ellipse cx="20" cy="300" rx="8" ry="8"></ellipse>
<ellipse cx="60" cy="300" rx="16" ry="16"></ellipse>
<ellipse cx="100" cy="300" rx="8" ry="8"></ellipse>
<ellipse cx="140" cy="300" rx="4" ry="4"></ellipse>
<ellipse cx="180" cy="300" rx="8" ry="8"></ellipse>
<ellipse cx="220" cy="300" rx="8" ry="8"></ellipse>
<ellipse cx="260" cy="300" rx="4" ry="4"></ellipse>
<ellipse cx="300" cy="300" rx="16" ry="16"></ellipse>
<ellipse cx="340" cy="300" rx="8" ry="8"></ellipse>
<ellipse cx="380" cy="300" rx="4" ry="4"></ellipse>
<ellipse cx="420" cy="300" rx="16" ry="16"></ellipse>
<ellipse cx="460" cy="300" rx="8" ry="8"></ellipse>
<ellipse cx="500" cy="300" rx="8" ry="8"></ellipse>
<ellipse cx="540" cy="300" rx="4" ry="4"></ellipse>
<ellipse cx="20" cy="340" rx="8" ry="8"></ellipse>
<ellipse cx="60" cy="340" rx="8" ry="8"></ellipse>
<ellipse cx="100" cy="340" rx="4" ry="4"></ellipse>
<ellipse cx="140" cy="340" rx="8" ry="8"></ellipse>
<ellipse cx="180" cy="340" rx="16" ry="16"></ellipse>
<ellipse cx="220" cy="340" rx="4" ry="4"></ellipse>
<ellipse cx="260" cy="340" rx="16" ry="16"></ellipse>
<ellipse cx="300" cy="340" rx="8" ry="8"></ellipse>
<ellipse cx="340" cy="340" rx="8" ry="8"></ellipse>
<ellipse cx="380" cy="340" rx="4" ry="4"></ellipse>
<ellipse cx="420" cy="340" rx="8" ry="8"></ellipse>
<ellipse cx="460" cy="340" rx="4" ry="4"></ellipse>
<ellipse cx="500" cy="340" rx="8" ry="8"></ellipse>
<ellipse cx="540" cy="340" rx="16" ry="16"></ellipse>
<ellipse cx="20" cy="380" rx="8" ry="8"></ellipse>
<ellipse cx="60" cy="380" rx="8" ry="8"></ellipse>
<ellipse cx="100" cy="380" rx="4" ry="4"></ellipse>
<ellipse cx="140" cy="380" rx="16" ry="16"></ellipse>
<ellipse cx="180" cy="380" rx="4" ry="4"></ellipse>
<ellipse cx="220" cy="380" rx="8" ry="8"></ellipse>
<ellipse cx="260" cy="380" rx="16" ry="16"></ellipse>
<ellipse cx="300" cy="380" rx="4" ry="4"></ellipse>
<ellipse cx="340" cy="380" rx="16" ry="16"></ellipse>
<ellipse cx="380" cy="380" rx="4" ry="4"></ellipse>
<ellipse cx="420" cy="380" rx="8" ry="8"></ellipse>
<ellipse cx="460" cy="380" rx="16" ry="16"></ellipse>
<ellipse cx="500" cy="380" rx="4" ry="4"></ellipse>
<ellipse cx="540" cy="380" rx="16" ry="16"></ellipse>
<ellipse cx="20" cy="420" rx="8" ry="8"></ellipse>
<ellipse cx="60" cy="420" rx="4" ry="4"></ellipse>
<ellipse cx="100" cy="420" rx="16" ry="16"></ellipse>
<ellipse cx="140" cy="420" rx="16" ry="16"></ellipse>
<ellipse cx="180" cy="420" rx="8" ry="8"></ellipse>
<ellipse cx="220" cy="420" rx="4" ry="4"></ellipse>
<ellipse cx="260" cy="420" rx="16" ry="16"></ellipse>
<ellipse cx="300" cy="420" rx="16" ry="16"></ellipse>
<ellipse cx="340" cy="420" rx="16" ry="16"></ellipse>
<ellipse cx="380" cy="420" rx="4" ry="4"></ellipse>
<ellipse cx="420" cy="420" rx="8" ry="8"></ellipse>
<ellipse cx="460" cy="420" rx="8" ry="8"></ellipse>
<ellipse cx="500" cy="420" rx="8" ry="8"></ellipse>
<ellipse cx="540" cy="420" rx="8" ry="8"></ellipse>
<ellipse cx="20" cy="460" rx="4" ry="4"></ellipse>
<ellipse cx="60" cy="460" rx="16" ry="16"></ellipse>
<ellipse cx="100" cy="460" rx="16" ry="16"></ellipse>
<ellipse cx="140" cy="460" rx="16" ry="16"></ellipse>
<ellipse cx="180" cy="460" rx="4" ry="4"></ellipse>
<ellipse cx="220" cy="460" rx="16" ry="16"></ellipse>
<ellipse cx="260" cy="460" rx="4" ry="4"></ellipse>
<ellipse cx="300" cy="460" rx="8" ry="8"></ellipse>
<ellipse cx="340" cy="460" rx="4" ry="4"></ellipse>
<ellipse cx="380" cy="460" rx="8" ry="8"></ellipse>
<ellipse cx="420" cy="460" rx="16" ry="16"></ellipse>
<ellipse cx="460" cy="460" rx="8" ry="8"></ellipse>
<ellipse cx="500" cy="460" rx="8" ry="8"></ellipse>
<ellipse cx="540" cy="460" rx="4" ry="4"></ellipse>
<ellipse cx="20" cy="500" rx="8" ry="8"></ellipse>
<ellipse cx="60" cy="500" rx="16" ry="16"></ellipse>
<ellipse cx="100" cy="500" rx="8" ry="8"></ellipse>
<ellipse cx="140" cy="500" rx="4" ry="4"></ellipse>
<ellipse cx="180" cy="500" rx="16" ry="16"></ellipse>
<ellipse cx="220" cy="500" rx="16" ry="16"></ellipse>
<ellipse cx="260" cy="500" rx="16" ry="16"></ellipse>
<ellipse cx="300" cy="500" rx="4" ry="4"></ellipse>
<ellipse cx="340" cy="500" rx="16" ry="16"></ellipse>
<ellipse cx="380" cy="500" rx="16" ry="16"></ellipse>
<ellipse cx="420" cy="500" rx="4" ry="4"></ellipse>
<ellipse cx="460" cy="500" rx="8" ry="8"></ellipse>
<ellipse cx="500" cy="500" rx="4" ry="4"></ellipse>
<ellipse cx="540" cy="500" rx="16" ry="16"></ellipse>
<ellipse cx="20" cy="540" rx="16" ry="16"></ellipse>
<ellipse cx="60" cy="540" rx="16" ry="16"></ellipse>
<ellipse cx="100" cy="540" rx="4" ry="4"></ellipse>
<ellipse cx="140" cy="540" rx="8" ry="8"></ellipse>
<ellipse cx="180" cy="540" rx="4" ry="4"></ellipse>
<ellipse cx="220" cy="540" rx="16" ry="16"></ellipse>
<ellipse cx="260" cy="540" rx="8" ry="8"></ellipse>
<ellipse cx="300" cy="540" rx="16" ry="16"></ellipse>
<ellipse cx="340" cy="540" rx="8" ry="8"></ellipse>
<ellipse cx="380" cy="540" rx="4" ry="4"></ellipse>
<ellipse cx="420" cy="540" rx="8" ry="8"></ellipse>
<ellipse cx="460" cy="540" rx="8" ry="8"></ellipse>
<ellipse cx="500" cy="540" rx="8" ry="8"></ellipse>
<ellipse cx="540" cy="540" rx="8" ry="8"></ellipse>
<ellipse cx="20" cy="580" rx="4" ry="4"></ellipse>
<ellipse cx="60" cy="580" rx="16" ry="16"></ellipse>
<ellipse cx="100" cy="580" rx="16" ry="16"></ellipse>
<ellipse cx="140" cy="580" rx="16" ry="16"></ellipse>
<ellipse cx="180" cy="580" rx="4" ry="4"></ellipse>
<ellipse cx="220" cy="580" rx="8" ry="8"></ellipse>
<ellipse cx="260" cy="580" rx="4" ry="4"></ellipse>
<ellipse cx="300" cy="580" rx="16" ry="16"></ellipse>
<ellipse cx="340" cy="580" rx="8" ry="8"></ellipse>
<ellipse cx="380" cy="580" rx="16" ry="16"></ellipse>
<ellipse cx="420" cy="580" rx="8" ry="8"></ellipse>
<ellipse cx="460" cy="580" rx="4" ry="4"></ellipse>
<ellipse cx="500" cy="580" rx="8" ry="8"></ellipse>
<ellipse cx="540" cy="580" rx="8" ry="8"></ellipse>
<ellipse cx="20" cy="620" rx="8" ry="8"></ellipse>
<ellipse cx="60" cy="620" rx="8" ry="8"></ellipse>
<ellipse cx="100" cy="620" rx="4" ry="4"></ellipse>
<ellipse cx="140" cy="620" rx="16" ry="16"></ellipse>
<ellipse cx="180" cy="620" rx="16" ry="16"></ellipse>
<ellipse cx="220" cy="620" rx="16" ry="16"></ellipse>
<ellipse cx="260" cy="620" rx="4" ry="4"></ellipse>
<ellipse cx="300" cy="620" rx="16" ry="16"></ellipse>
<ellipse cx="340" cy="620" rx="16" ry="16"></ellipse>
<ellipse cx="380" cy="620" rx="16" ry="16"></ellipse>
<ellipse cx="420" cy="620" rx="4" ry="4"></ellipse>
<ellipse cx="460" cy="620" rx="8" ry="8"></ellipse>
<ellipse cx="500" cy="620" rx="8" ry="8"></ellipse>
<ellipse cx="540" cy="620" rx="8" ry="8"></ellipse>
<ellipse cx="20" cy="660" rx="4" ry="4"></ellipse>
<ellipse cx="60" cy="660" rx="16" ry="16"></ellipse>
<ellipse cx="100" cy="660" rx="8" ry="8"></ellipse>
<ellipse cx="140" cy="660" rx="16" ry="16"></ellipse>
<ellipse cx="180" cy="660" rx="8" ry="8"></ellipse>
<ellipse cx="220" cy="660" rx="4" ry="4"></ellipse>
<ellipse cx="260" cy="660" rx="8" ry="8"></ellipse>
<ellipse cx="300" cy="660" rx="16" ry="16"></ellipse>
<ellipse cx="340" cy="660" rx="4" ry="4"></ellipse>
<ellipse cx="380" cy="660" rx="8" ry="8"></ellipse>
<ellipse cx="420" cy="660" rx="16" ry="16"></ellipse>
<ellipse cx="460" cy="660" rx="8" ry="8"></ellipse>
<ellipse cx="500" cy="660" rx="4" ry="4"></ellipse>
<ellipse cx="540" cy="660" rx="8" ry="8"></ellipse>
<ellipse cx="20" cy="700" rx="8" ry="8"></ellipse>
<ellipse cx="60" cy="700" rx="8" ry="8"></ellipse>
<ellipse cx="100" cy="700" rx="8" ry="8"></ellipse>
<ellipse cx="140" cy="700" rx="4" ry="4"></ellipse>
<ellipse cx="180" cy="700" rx="16" ry="16"></ellipse>
<ellipse cx="220" cy="700" rx="16" ry="16"></ellipse>
<ellipse cx="260" cy="700" rx="16" ry="16"></ellipse>
<ellipse cx="300" cy="700" rx="4" ry="4"></ellipse>
<ellipse cx="340" cy="700" rx="16" ry="16"></ellipse>
<ellipse cx="380" cy="700" rx="4" ry="4"></ellipse>
<ellipse cx="420" cy="700" rx="8" ry="8"></ellipse>
<ellipse cx="460" cy="700" rx="4" ry="4"></ellipse>
<ellipse cx="500" cy="700" rx="8" ry="8"></ellipse>
<ellipse cx="540" cy="700" rx="16" ry="16"></ellipse>
<ellipse cx="20" cy="740" rx="8" ry="8"></ellipse>
<ellipse cx="60" cy="740" rx="8" ry="8"></ellipse>
</g>
</svg>